<svg xmlns="http://www.w3.org/2000/svg" width="387" height="101" viewBox="0 0 387 101" fill="none"><path d="M123.896 66.3283V34.6716H137.569C140.397 34.6716 142.834 35.1389 144.879 36.0735C146.925 36.978 148.504 38.2895 149.617 40.008C150.73 41.7265 151.287 43.7767 151.287 46.1584C151.287 48.5101 150.73 50.5452 149.617 52.2637C148.504 53.9822 146.925 55.3087 144.879 56.2434C142.834 57.1478 140.397 57.6001 137.569 57.6001H127.958L131.207 54.2987V66.3283H123.896ZM131.207 55.1128L127.958 51.6305H137.163C139.419 51.6305 141.104 51.1481 142.217 50.1834C143.33 49.2186 143.886 47.8769 143.886 46.1584C143.886 44.4098 143.33 43.0531 142.217 42.0883C141.104 41.1235 139.419 40.6411 137.163 40.6411H127.958L131.207 37.1589V55.1128Z" fill="#00457E"></path><path d="M156.506 66.3283V34.6716H170.178C173.006 34.6716 175.443 35.1389 177.488 36.0735C179.534 36.978 181.113 38.2895 182.226 40.008C183.339 41.7265 183.896 43.7767 183.896 46.1584C183.896 48.5101 183.339 50.5452 182.226 52.2637C181.113 53.952 179.534 55.2484 177.488 56.1529C175.443 57.0574 173.006 57.5096 170.178 57.5096H160.567L163.816 54.2987V66.3283H156.506ZM176.586 66.3283L168.689 54.8414H176.496L184.483 66.3283H176.586ZM163.816 55.1128L160.567 51.6758H169.772C172.028 51.6758 173.713 51.1934 174.826 50.2286C175.939 49.2337 176.496 47.8769 176.496 46.1584C176.496 44.4098 175.939 43.0531 174.826 42.0883C173.713 41.1235 172.028 40.6411 169.772 40.6411H160.567L163.816 37.1589V55.1128Z" fill="#00457E"></path><path d="M205.03 66.871C202.533 66.871 200.217 66.4639 198.081 65.6499C195.975 64.8359 194.14 63.6902 192.576 62.2129C191.041 60.7356 189.838 59.002 188.966 57.0122C188.123 55.0223 187.702 52.8516 187.702 50.4999C187.702 48.1483 188.123 45.9775 188.966 43.9877C189.838 41.9979 191.056 40.2643 192.621 38.787C194.185 37.3096 196.02 36.164 198.126 35.3499C200.232 34.5359 202.518 34.1289 204.985 34.1289C207.482 34.1289 209.768 34.5359 211.844 35.3499C213.949 36.164 215.769 37.3096 217.304 38.787C218.868 40.2643 220.086 41.9979 220.959 43.9877C221.831 45.9474 222.267 48.1181 222.267 50.4999C222.267 52.8516 221.831 55.0374 220.959 57.0574C220.086 59.0472 218.868 60.7808 217.304 62.2581C215.769 63.7053 213.949 64.8359 211.844 65.6499C209.768 66.4639 207.497 66.871 205.03 66.871ZM204.985 60.6301C206.399 60.6301 207.692 60.3889 208.865 59.9065C210.069 59.4241 211.122 58.7307 212.024 57.8262C212.927 56.9217 213.618 55.8514 214.1 54.6153C214.611 53.3792 214.867 52.0074 214.867 50.4999C214.867 48.9925 214.611 47.6207 214.1 46.3846C213.618 45.1484 212.927 44.0781 212.024 43.1737C211.152 42.2692 210.114 41.5758 208.91 41.0934C207.707 40.611 206.399 40.3698 204.985 40.3698C203.571 40.3698 202.262 40.611 201.059 41.0934C199.886 41.5758 198.848 42.2692 197.945 43.1737C197.043 44.0781 196.336 45.1484 195.825 46.3846C195.343 47.6207 195.103 48.9925 195.103 50.4999C195.103 51.9772 195.343 53.349 195.825 54.6153C196.336 55.8514 197.028 56.9217 197.9 57.8262C198.803 58.7307 199.856 59.4241 201.059 59.9065C202.262 60.3889 203.571 60.6301 204.985 60.6301Z" fill="#00457E"></path><path d="M234.53 48.9171H249.691V54.7962H234.53V48.9171ZM235.071 66.3283H227.761V34.6716H251.632V40.5507H235.071V66.3283Z" fill="#00457E"></path><path d="M271.389 66.871C268.952 66.871 266.681 66.479 264.575 65.6951C262.499 64.8811 260.694 63.7354 259.16 62.2581C257.626 60.7808 256.422 59.0472 255.55 57.0574C254.708 55.0675 254.287 52.8817 254.287 50.4999C254.287 48.1181 254.708 45.9323 255.55 43.9425C256.422 41.9526 257.626 40.219 259.16 38.7417C260.724 37.2644 262.544 36.1338 264.62 35.3499C266.696 34.5359 268.967 34.1289 271.434 34.1289C274.171 34.1289 276.638 34.6113 278.834 35.5761C281.06 36.5107 282.925 37.8976 284.429 39.7367L279.736 44.0781C278.653 42.842 277.45 41.9225 276.127 41.3195C274.803 40.6864 273.359 40.3698 271.795 40.3698C270.321 40.3698 268.967 40.611 267.733 41.0934C266.5 41.5758 265.432 42.2692 264.53 43.1737C263.627 44.0781 262.92 45.1484 262.409 46.3846C261.928 47.6207 261.687 48.9925 261.687 50.4999C261.687 52.0074 261.928 53.3792 262.409 54.6153C262.92 55.8514 263.627 56.9217 264.53 57.8262C265.432 58.7307 266.5 59.4241 267.733 59.9065C268.967 60.3889 270.321 60.6301 271.795 60.6301C273.359 60.6301 274.803 60.3286 276.127 59.7256C277.45 59.0925 278.653 58.1428 279.736 56.8765L284.429 61.218C282.925 63.0571 281.06 64.459 278.834 65.4238C276.638 66.3886 274.156 66.871 271.389 66.871Z" fill="#00457E"></path><path d="M296.089 47.4247H311.296V53.1229H296.089V47.4247ZM296.631 60.4492H313.823V66.3283H289.366V34.6716H313.236V40.5507H296.631V60.4492Z" fill="#00457E"></path><path d="M319.639 66.3283V34.6716H326.95V66.3283H319.639Z" fill="#00457E"></path><path d="M344.824 66.871C342.297 66.871 339.876 66.5393 337.559 65.876C335.243 65.1826 333.378 64.2932 331.964 63.2078L334.446 57.6905C335.8 58.6553 337.394 59.4542 339.229 60.0874C341.094 60.6904 342.974 60.9919 344.869 60.9919C346.313 60.9919 347.472 60.8562 348.344 60.5848C349.246 60.2834 349.908 59.8763 350.329 59.3638C350.751 58.8513 350.961 58.2634 350.961 57.6001C350.961 56.7559 350.63 56.0926 349.968 55.6102C349.307 55.0977 348.434 54.6907 347.351 54.3892C346.268 54.0575 345.065 53.756 343.741 53.4847C342.448 53.1832 341.139 52.8214 339.816 52.3993C338.522 51.9772 337.334 51.4346 336.251 50.7713C335.168 50.108 334.28 49.2337 333.588 48.1483C332.927 47.0629 332.596 45.6761 332.596 43.9877C332.596 42.1787 333.077 40.5356 334.04 39.0583C335.032 37.5508 336.506 36.3599 338.462 35.4856C340.447 34.5811 342.929 34.1289 345.907 34.1289C347.893 34.1289 349.848 34.3701 351.773 34.8525C353.699 35.3047 355.398 35.9982 356.872 36.9328L354.616 42.4953C353.142 41.6511 351.668 41.0331 350.194 40.6411C348.72 40.219 347.276 40.008 345.862 40.008C344.448 40.008 343.29 40.1738 342.388 40.5055C341.485 40.8371 340.838 41.2743 340.447 41.817C340.056 42.3295 339.861 42.9325 339.861 43.6259C339.861 44.4399 340.192 45.1032 340.853 45.6158C341.515 46.0981 342.388 46.4901 343.471 46.7916C344.554 47.0931 345.742 47.3946 347.035 47.6961C348.359 47.9975 349.668 48.3443 350.961 48.7362C352.285 49.1281 353.488 49.6558 354.571 50.319C355.654 50.9823 356.526 51.8566 357.188 52.942C357.88 54.0274 358.226 55.3992 358.226 57.0574C358.226 58.8362 357.73 60.4643 356.737 61.9416C355.744 63.4189 354.255 64.6098 352.27 65.5142C350.314 66.4187 347.833 66.871 344.824 66.871Z" fill="#00457E"></path><path d="M373.6 66.871C371.073 66.871 368.651 66.5393 366.335 65.876C364.018 65.1826 362.153 64.2932 360.739 63.2078L363.221 57.6905C364.575 58.6553 366.169 59.4542 368.004 60.0874C369.869 60.6904 371.75 60.9919 373.645 60.9919C375.089 60.9919 376.247 60.8562 377.119 60.5848C378.022 60.2834 378.684 59.8763 379.105 59.3638C379.526 58.8513 379.737 58.2634 379.737 57.6001C379.737 56.7559 379.406 56.0926 378.744 55.6102C378.082 55.0977 377.21 54.6907 376.127 54.3892C375.044 54.0575 373.84 53.756 372.517 53.4847C371.223 53.1832 369.915 52.8214 368.591 52.3993C367.297 51.9772 366.109 51.4346 365.026 50.7713C363.943 50.108 363.056 49.2337 362.364 48.1483C361.702 47.0629 361.371 45.6761 361.371 43.9877C361.371 42.1787 361.852 40.5356 362.815 39.0583C363.808 37.5508 365.282 36.3599 367.237 35.4856C369.223 34.5811 371.704 34.1289 374.683 34.1289C376.668 34.1289 378.624 34.3701 380.549 34.8525C382.474 35.3047 384.174 35.9982 385.648 36.9328L383.392 42.4953C381.918 41.6511 380.444 41.0331 378.969 40.6411C377.495 40.219 376.051 40.008 374.638 40.008C373.224 40.008 372.065 40.1738 371.163 40.5055C370.261 40.8371 369.614 41.2743 369.223 41.817C368.832 42.3295 368.636 42.9325 368.636 43.6259C368.636 44.4399 368.967 45.1032 369.629 45.6158C370.291 46.0981 371.163 46.4901 372.246 46.7916C373.329 47.0931 374.517 47.3946 375.811 47.6961C377.134 47.9975 378.443 48.3443 379.737 48.7362C381.06 49.1281 382.264 49.6558 383.346 50.319C384.429 50.9823 385.302 51.8566 385.964 52.942C386.656 54.0274 387.002 55.3992 387.002 57.0574C387.002 58.8362 386.505 60.4643 385.512 61.9416C384.52 63.4189 383.031 64.6098 381.045 65.5142C379.09 66.4187 376.608 66.871 373.6 66.871Z" fill="#00457E"></path><path d="M29.7866 61.5973L70.6312 63.8928C70.6312 63.8928 72.1657 40.1727 51.5515 39.793C28.6508 39.3713 29.7866 61.5973 29.7866 61.5973Z" fill="#FDD456"></path><path d="M24.4295 81.5531L2.28906 64.6481C2.67079 69.5318 6.86983 77.0451 10.6871 81.9287L24.4295 81.5531Z" fill="#205C90"></path><path d="M22.5208 64.6481L4.57945 64.2725L27.1016 81.5531L43.516 80.4261L22.5208 64.6481Z" fill="#205C90"></path><path d="M40.4621 65.0238L25.1929 64.6481L45.8064 80.4261L59.9304 80.0504L40.4621 65.0238Z" fill="#205C90"></path><path d="M55.7314 65.3995L43.1343 65.0238L62.2208 79.6748L74.0545 79.2991L55.7314 65.3995Z" fill="#205C90"></path><path d="M76.3448 79.2991L58.4035 65.3995L69.4737 65.7751L86.2699 78.5478L76.3448 79.2991Z" fill="#205C90"></path><path d="M90.0872 81.5531L88.1785 80.0504L78.6352 80.8018L85.8881 86.0611C87.7374 84.4074 88.69 83.722 90.0872 81.5531Z" fill="#205C90"></path><path d="M78.6352 92.0717C79.017 92.4474 85.1247 87.5637 84.7429 87.1881L76.3448 80.8018L64.5112 81.5531L78.6352 92.0717Z" fill="#205C90"></path><path d="M61.8391 81.5531L77.49 93.1987C73.3549 95.546 70.79 97.1854 68.3285 97.331L48.4785 82.3044L61.8391 81.5531Z" fill="#205C90"></path><path d="M45.8064 82.3044L66.8016 98.458C61.2035 99.5348 58.0477 100.082 52.2958 100.336L29.7737 83.0557L45.8064 82.3044Z" fill="#205C90"></path><path d="M26.7198 83.4314L49.6237 100.712C38.9352 102.59 20.9939 95.077 12.5958 83.8071L26.7198 83.4314Z" fill="#205C90"></path><path d="M93.4011 75.6687L85.9167 73.4191C85.4967 73.2929 85.2182 73.8468 85.5701 74.1086L91.6125 78.6055C91.7702 78.7229 91.9911 78.7056 92.1245 78.5614C92.8262 77.803 93.2038 77.1969 93.6461 76.1938C93.7399 75.9811 93.6237 75.7356 93.4011 75.6687Z" fill="#F9A630"></path><path d="M96.4617 68.9531L76.669 66.5787C76.2521 66.5287 76.067 67.0728 76.4297 67.2845C82.7277 70.9609 86.6002 71.8387 94.2704 74.5495C94.4523 74.6138 94.6577 74.5372 94.7491 74.3673C95.667 72.6609 96.2455 71.4361 96.7913 69.4387C96.8537 69.2102 96.6969 68.9813 96.4617 68.9531Z" fill="#F9A630"></path><path d="M98.788 61.4814L73.3295 62.463C72.8635 62.481 72.8133 63.1524 73.2715 63.2394L97.3457 67.812C97.5365 67.8482 97.7254 67.7384 97.7892 67.5549C98.5463 65.3754 99.0086 64.0138 99.1897 61.8981C99.2095 61.6666 99.0202 61.4724 98.788 61.4814Z" fill="#F9A630"></path><path d="M100.263 53.6431L73.0513 58.8935C72.5909 58.9823 72.6469 59.6581 73.1157 59.6699L99.3141 60.326C99.4883 60.3304 99.6449 60.2188 99.6961 60.0522C100.368 57.8678 100.543 56.4049 100.727 54.0574C100.747 53.7999 100.516 53.5941 100.263 53.6431Z" fill="#F9A630"></path><path d="M99.9258 45.4145L72.496 55.338C72.0554 55.4974 72.2156 56.1558 72.6802 56.0949L100.43 52.4587C100.623 52.4334 100.768 52.2694 100.77 52.0747C100.798 49.5746 100.749 48.0436 100.445 45.7291C100.413 45.4823 100.16 45.3298 99.9258 45.4145Z" fill="#F9A630"></path><path d="M100.056 44.5876L71.707 52.5947C71.2574 52.7216 71.0029 52.0967 71.4132 51.8735L98.4102 37.1859C98.6293 37.0667 98.9029 37.1805 98.9719 37.4203C99.6848 39.8982 99.9938 41.5096 100.337 44.1608C100.362 44.353 100.242 44.5349 100.056 44.5876Z" fill="#F9A630"></path><path d="M98.2118 36.3121L70.361 49.4107C69.938 49.6097 69.5847 49.0343 69.9535 48.7471L95.3727 28.9504C95.5671 28.799 95.8519 28.8636 95.9627 29.0836C97.5947 32.3241 98.2833 34.0162 98.433 35.9372C98.4453 36.0959 98.3559 36.2443 98.2118 36.3121Z" fill="#F9A630"></path><path d="M95.0881 28.0916L68.6105 46.2297C68.2238 46.4945 67.7827 45.9801 68.1034 45.6383L90.8223 21.4288C90.9797 21.2611 91.2477 21.2647 91.3984 21.4385C93.0816 23.3786 93.9756 24.9425 95.2215 27.6034C95.3026 27.7767 95.246 27.9834 95.0881 28.0916Z" fill="#F9A630"></path><path d="M90.477 20.5984L65.8494 43.6384C65.5087 43.9571 64.996 43.52 65.257 43.1332L84.6936 14.3151C84.8242 14.1215 85.0949 14.0849 85.2716 14.2377C87.5027 16.1678 88.7058 17.5815 90.5262 20.0828C90.6423 20.2423 90.6211 20.4636 90.477 20.5984Z" fill="#F9A630"></path><path d="M84.3733 13.8082L63.1422 41.3459C62.8569 41.7159 62.28 41.3658 62.4764 40.9419L77.4102 8.71469C77.5118 8.49529 77.7867 8.42008 77.9889 8.55275C80.5771 10.2513 82.536 10.9491 84.3761 13.3394C84.4825 13.4776 84.4798 13.6701 84.3733 13.8082Z" fill="#F9A630"></path><path d="M77.0455 8.22796L59.657 39.4812C59.4292 39.8905 58.8053 39.6276 58.9391 39.1788L69.3732 4.18476C69.4393 3.96298 69.6832 3.8468 69.8971 3.93513C72.6987 5.09195 74.365 5.94955 76.9265 7.71678C77.0919 7.83091 77.1432 8.05234 77.0455 8.22796Z" fill="#F9A630"></path><path d="M68.9736 3.77279L56.3967 38.5819C56.238 39.021 55.5823 38.8642 55.6394 38.4008L60.1832 1.52284C60.2098 1.30702 60.4076 1.15396 60.6229 1.18419C63.0676 1.52734 64.9808 2.03972 68.7276 3.26786C68.9373 3.3366 69.0486 3.56521 68.9736 3.77279Z" fill="#F9A630"></path><path d="M59.7789 1.47585L52.7731 37.7478C52.6848 38.2052 52.0144 38.1538 51.9969 37.6882L50.5963 0.423791C50.5877 0.195362 50.776 0.00810737 51.0044 0.0178141C54.9008 0.183421 57.1274 0.33783 59.5091 1.03021C59.7009 1.08598 59.8168 1.27971 59.7789 1.47585Z" fill="#F9A630"></path><path d="M50.1832 0.423828L49.1381 37.8545C49.125 38.3233 48.4488 38.3773 48.3615 37.9166L41.3834 1.10615C41.3456 0.906872 41.4666 0.711034 41.6628 0.659894C44.3483 -0.0398042 46.3975 0.166671 49.7707 0.0200354C49.999 0.0101093 50.1895 0.195363 50.1832 0.423828Z" fill="#F9A630"></path><path d="M40.9765 1.50545L45.5226 38.0554C45.5802 38.5183 44.9257 38.6763 44.7658 38.2381L32.1827 3.75519C32.1095 3.55452 32.2111 3.33191 32.4105 3.25537C35.4076 2.10504 37.2578 1.48027 40.5539 1.1653C40.7635 1.14527 40.9505 1.29651 40.9765 1.50545Z" fill="#F9A630"></path><path d="M31.7723 4.1461L41.8888 39.2408C42.0182 39.6898 41.3944 39.9476 41.1691 39.5383L23.7392 7.87247C23.6376 7.68783 23.7008 7.45554 23.8815 7.3472C26.5325 5.75838 28.1645 4.80543 31.2884 3.87995C31.4954 3.81862 31.7125 3.93866 31.7723 4.1461Z" fill="#F9A630"></path><path d="M23.3611 8.3237L38.6509 40.9074C38.8496 41.331 38.2728 41.6836 37.9864 41.3137L16.4459 13.4868C16.3199 13.3241 16.3417 13.0912 16.4956 12.9547C18.645 11.0472 20.0857 9.91802 22.7943 8.16185C22.9931 8.03298 23.2605 8.10925 23.3611 8.3237Z" fill="#F9A630"></path><path d="M16.0941 13.9563L35.519 42.7561C35.7799 43.1429 35.2673 43.5801 34.9265 43.2613L10.3008 20.2236C10.1557 20.0878 10.1354 19.8644 10.2542 19.705C11.9788 17.3925 13.2458 16.0206 15.5011 13.8909C15.6765 13.7253 15.9592 13.7563 16.0941 13.9563Z" fill="#F9A630"></path><path d="M9.99544 20.7247L32.8564 45.4233C33.1723 45.7646 32.7362 46.274 32.3503 46.0146L5.67383 28.0796C5.52143 27.9771 5.46052 27.7821 5.52915 27.6118C6.47311 25.2688 7.47085 23.6117 9.38327 20.7725C9.52421 20.5633 9.82407 20.5396 9.99544 20.7247Z" fill="#F9A630"></path><path d="M5.4191 28.5861L30.9422 48.4632C31.3091 48.749 30.961 49.3222 30.5382 49.1285L2.58203 36.318C2.42839 36.2476 2.33671 36.0863 2.35844 35.9187C2.65641 33.6198 3.43315 31.7883 4.82158 28.7339C4.92632 28.5035 5.2194 28.4306 5.4191 28.5861Z" fill="#F9A630"></path><path d="M2.38351 36.8243L29.3597 51.8338C29.7682 52.0611 29.5071 52.6839 29.0587 52.552L0.728917 44.2172C0.538201 44.1611 0.419802 43.9706 0.453538 43.7746C0.88083 41.2932 1.21588 39.4751 1.81486 37.0702C1.87696 36.8209 2.159 36.6994 2.38351 36.8243Z" fill="#F9A630"></path><path d="M0.850902 45.4117L28.1119 55.0642C28.5503 55.2194 28.4012 55.8732 27.9389 55.823L0.354322 52.8293C0.156979 52.8079 0.00677548 52.6415 0.00508041 52.443C-0.0170387 49.8529 0.0227566 48.2497 0.333277 45.731C0.363782 45.4836 0.615886 45.3285 0.850902 45.4117Z" fill="#F9A630"></path><path d="M0.495241 53.641L27.3777 58.8927C27.8374 58.9825 27.7806 59.6572 27.3124 59.6689L1.11832 60.3249C0.924195 60.3298 0.755605 60.191 0.722724 59.9996C0.326213 57.6918 0.137327 56.2545 0.030425 54.0417C0.0182122 53.7889 0.246842 53.5925 0.495241 53.641Z" fill="#F9A630"></path></svg>